<?xml version="1.0" standalone="no"?>
<!DOCTYPE svg PUBLIC "-//W3C//DTD SVG 20010904//EN"
 "http://www.w3.org/TR/2001/REC-SVG-20010904/DTD/svg10.dtd">
<svg version="1.0" xmlns="http://www.w3.org/2000/svg"
 width="16.000000pt" height="16.000000pt" viewBox="0 0 16.000000 16.000000"
 preserveAspectRatio="xMidYMid meet">

<g transform="translate(0.000000,16.000000) scale(0.100000,-0.100000)"
fill="#000000" stroke="none">
<path d="M0 80 l0 -80 80 0 80 0 0 80 0 80 -80 0 -80 0 0 -80z m95 30 c-2 -3
4 -14 12 -25 15 -20 15 -20 10 3 -3 12 -1 20 4 16 15 -9 10 -41 -7 -48 -9 -3
-25 -6 -37 -6 -17 0 -19 3 -8 9 7 5 10 15 7 22 -4 8 0 5 8 -5 14 -17 16 -17
16 -3 0 21 -36 42 -43 24 -2 -6 -8 -8 -13 -4 -5 4 -2 12 6 17 15 9 51 10 45 0z"/>
</g>
</svg>
