<?xml version="1.0" standalone="no"?>
<!DOCTYPE svg PUBLIC "-//W3C//DTD SVG 20010904//EN"
 "http://www.w3.org/TR/2001/REC-SVG-20010904/DTD/svg10.dtd">
<svg version="1.0" xmlns="http://www.w3.org/2000/svg"
 width="117.000000pt" height="151.000000pt" viewBox="0 0 117.000000 151.000000"
 preserveAspectRatio="xMidYMid meet">

<g transform="translate(0.000000,151.000000) scale(0.100000,-0.100000)"
fill="#000000" stroke="none">
<path d="M0 755 l0 -755 585 0 585 0 0 755 0 755 -585 0 -585 0 0 -755z m750
335 c180 -104 170 -86 170 -294 0 -166 -1 -173 -22 -193 -36 -33 -285 -173
-308 -173 -27 0 -278 144 -307 176 -22 24 -23 33 -23 194 0 161 1 170 23 193
12 14 83 59 157 102 99 56 142 75 160 71 14 -2 81 -37 150 -76z"/>
<path d="M590 1059 l0 -54 75 -43 c41 -24 82 -53 90 -65 11 -15 15 -48 15
-112 l0 -90 50 -28 50 -28 0 153 c0 84 -4 158 -8 164 -7 11 -223 138 -254 150
-16 5 -18 -1 -18 -47z"/>
<path d="M440 973 l0 -58 70 -38 c101 -55 110 -70 110 -181 l0 -91 43 -23 c23
-12 45 -22 50 -22 8 0 10 264 1 295 -3 12 -39 40 -92 70 -47 28 -108 62 -134
78 l-48 27 0 -57z"/>
<path d="M310 788 c0 -73 4 -138 8 -144 6 -9 154 -98 220 -133 l22 -12 0 144
0 143 -118 67 c-65 37 -121 67 -125 67 -4 0 -7 -60 -7 -132z"/>
</g>
</svg>
